<svg xmlns="http://www.w3.org/2000/svg" xmlns:xlink="http://www.w3.org/1999/xlink" width="439.785" height="364.578" viewBox="0 0 439.785 364.578">
  <defs>
    <filter id="Ellipse_2" x="48.712" y="0" width="346.614" height="346.614" filterUnits="userSpaceOnUse">
      <feOffset dy="3" input="SourceAlpha"/>
      <feGaussianBlur stdDeviation="3" result="blur"/>
      <feFlood flood-opacity="0.161"/>
      <feComposite operator="in" in2="blur"/>
      <feComposite in="SourceGraphic"/>
    </filter>
    <filter id="Ellipse_4" x="366.616" y="95.432" width="73.169" height="73.169" filterUnits="userSpaceOnUse">
      <feOffset dy="3" input="SourceAlpha"/>
      <feGaussianBlur stdDeviation="3" result="blur-2"/>
      <feFlood flood-color="#12baf2"/>
      <feComposite operator="in" in2="blur-2"/>
      <feComposite in="SourceGraphic"/>
    </filter>
    <filter id="Ellipse_5" x="70.099" y="291.41" width="73.169" height="73.169" filterUnits="userSpaceOnUse">
      <feOffset dy="3" input="SourceAlpha"/>
      <feGaussianBlur stdDeviation="3" result="blur-3"/>
      <feFlood flood-color="#efac00"/>
      <feComposite operator="in" in2="blur-3"/>
      <feComposite in="SourceGraphic"/>
    </filter>
    <filter id="Ellipse_6" x="0" y="127.245" width="73.169" height="73.169" filterUnits="userSpaceOnUse">
      <feOffset dy="3" input="SourceAlpha"/>
      <feGaussianBlur stdDeviation="3" result="blur-4"/>
      <feFlood flood-color="#f9e41e"/>
      <feComposite operator="in" in2="blur-4"/>
      <feComposite in="SourceGraphic"/>
    </filter>
  </defs>
  <g id="Group_4" data-name="Group 4" transform="translate(-275.634 262.128)">
    <g id="Group_3" data-name="Group 3" transform="translate(305.954 -557.637) rotate(77)">
      <g transform="matrix(0.22, -0.97, 0.97, 0.22, 281.11, 96.02)" filter="url(#Ellipse_2)">
        <circle id="Ellipse_2-2" data-name="Ellipse 2" cx="137" cy="137" r="137" transform="translate(324.69 6) rotate(77)" fill="#fff"/>
      </g>
      <g id="Group_2" data-name="Group 2" transform="translate(-189 -365)">
        <g id="Group_1" data-name="Group 1" transform="translate(548 145)">
          <path id="Path_1" data-name="Path 1" d="M543.832,308.41A137.491,137.491,0,1,0,322.859,324.3L427.492,235.16Z" transform="translate(-289.992 -97.658)" fill="#12baf2"/>
          <path id="Path_2" data-name="Path 2" d="M469.734,290.277,410.96,166,306.328,255.138a137.392,137.392,0,0,0,163.406,35.139Z" transform="translate(-273.461 -28.498)" fill="#f9e41e"/>
          <path id="Path_3" data-name="Path 3" d="M417.107,290.277a137.986,137.986,0,0,0,57.566-51.028L358.333,166Z" transform="translate(-220.834 -28.498)" fill="#efac00"/>
        </g>
      </g>
      <circle id="Ellipse_3" data-name="Ellipse 3" cx="96" cy="96" r="96" transform="translate(401 -178)" fill="#fff"/>
    </g>
    <g transform="matrix(1, 0, 0, 1, 275.63, -262.13)" filter="url(#Ellipse_4)">
      <circle id="Ellipse_4-2" data-name="Ellipse 4" cx="23" cy="23" r="23" transform="translate(420.44 101.43) rotate(77)" fill="#12baf2"/>
    </g>
    <g transform="matrix(1, 0, 0, 1, 275.63, -262.13)" filter="url(#Ellipse_5)">
      <circle id="Ellipse_5-2" data-name="Ellipse 5" cx="23" cy="23" r="23" transform="translate(123.92 297.41) rotate(77)" fill="#efac00"/>
    </g>
    <g transform="matrix(1, 0, 0, 1, 275.63, -262.13)" filter="url(#Ellipse_6)">
      <circle id="Ellipse_6-2" data-name="Ellipse 6" cx="23" cy="23" r="23" transform="translate(53.82 133.24) rotate(77)" fill="#f9e41e"/>
    </g>
  </g>
</svg>
