<?xml version="1.0" encoding="utf-8"?>
<!-- Generator: Adobe Illustrator 22.0.1, SVG Export Plug-In . SVG Version: 6.00 Build 0)  -->
<svg version="1.1" xmlns="http://www.w3.org/2000/svg" xmlns:xlink="http://www.w3.org/1999/xlink" x="0px" y="0px"
	 viewBox="0 0 306.8 360.5" style="enable-background:new 0 0 306.8 360.5;" xml:space="preserve">
<style type="text/css">
	.st0{fill:#94572E;}
	.st1{fill:#CEDC38;}
	.st2{fill:#86783C;}
	.st3{fill:#38A4DD;}
	.st4{fill:none;stroke:#000000;stroke-width:11;stroke-miterlimit:10;}
	.st5{fill:#FFFFFF;stroke:#000000;stroke-width:3;stroke-miterlimit:10;}
	.st6{fill:#0D9A48;}
	.st7{fill:#227239;}
</style>
<g id="Vrstva_2">
</g>
<g id="Vrstva_1">
	<g id="Vrstva_5">
	</g>
</g>
<g id="Vrstva_3">
	<path class="st0" d="M263.5,7c0,0-4.7,41.8-10.8,67.4c-4,16.9,12.7,72,15.6,104.5v10.9c0.9,9.2,2.4,18,2.4,18v13
		c0,0-6.8,13-24.3,15s-21.4,18.8-16.4,35.8s1.9,34.7,4.4,40.7c2.1,5.1,10.9,13.8,10.8,25.3c0,1.9-0.3,10.5-0.8,12.2
		c-4,11.5-20.5-0.5-37.5-7s-57-13.5-74-4.5s-43,22.5-64.5,22s-68.5,0-68.5,0V7L263.5,7z"/>
	<path class="st1" d="M263.5,0c0,0,7.5,44.5,1.5,70c-4,16.9,0.5,69.4,3.4,101.9v10.9c0.9,9.2,2.4,18,2.4,18v13c0,0-6.8,13-24.3,15
		s-17.5,19-12.5,36s-2,34.5,0.5,40.5s14,26,10,37.5s-20.5-0.5-37.5-7s-57-13.5-74-4.5s-43,22.5-64.5,22s-68.5,0-68.5,0V0L263.5,0z"
		/>
</g>
<g id="Vrstva_4">
	<path class="st2" d="M234.3,305.3"/>
	<path class="st3" d="M0,210.2v-11.2l1.2-0.2c22.4-4.5,56.1-11.3,72.5-50.2c14.1-33.5,54-43.9,86-52.3c11.8-3.1,22.9-6,31-9.6
		C219.3,74,220,26.9,210,0l11,0c6.2,16.7,8,40.3,3.5,55.8c-5,17.4-13.4,33.9-29.3,41c-8.9,4-20.5,7-32.7,10.2
		c-31.2,8.1-66.6,17.4-78.6,45.9C65.2,197.1,25,205.2,3.4,209.6L0,210.2z"/>
	<path class="st4" d="M58.3,131.8"/>
	<path class="st4" d="M159.7,225.9c7.4,0,14.8,0,22.2,0c8.3,0,15-6.7,15-15c0-5.7,0-11.4,0-17.1v-1.5c0-8.3,6.7-15,15-15h56.5"/>
	<path class="st4" d="M43.3,261.4v38.1c0,8.3,6.7,15,15,15h52.5c7.8,0,14.2-6.3,14.2-14.2c0-19.8,0-39.6,0-59.3c0-8.3,6.7-15,15-15
		h1.8c5.9,0,11.9,0,17.8,0"/>
	<path class="st4" d="M117,131.8c-19.6,0-39.1,0-58.7,0c-8.3,0-15,6.7-15,15v114.6"/>
	<path class="st4" d="M0,65.4h201.7c8.3,0,15,6.7,15,15v36.3c0,8.3-6.7,15-15,15c-28.2,0-56.4,0-84.7,0"/>
	<circle class="st5" cx="117" cy="131.8" r="9.7"/>
	<circle class="st5" cx="43.2" cy="261.4" r="9.7"/>
	<circle class="st5" cx="159.7" cy="226.4" r="9.7"/>
	<path class="st6" d="M42.8,30.2c0.1,11-6.4,14.9-14.5,14.9c-8.1,0.1-14.6-3.7-14.7-14.7C13.5,19.5,28,5.4,28,5.4
		S42.7,19.3,42.8,30.2z"/>
	<polygon class="st7" points="27.8,43.5 27.9,34.3 34,22.9 27.9,32.9 27.9,28.7 32.1,20.5 27.9,27.6 27.9,27.6 28,20.2 32.5,13.6 
		28,19 27.9,5.4 27.6,23.5 27.7,22.7 22.9,15.6 27.6,24.1 27.2,32.4 27.2,32.2 21.8,24.8 27.2,33 27.2,34 27.2,34.1 27.2,34.1 
		26.2,55.2 27.7,55.2 27.8,44.3 33.1,36 	"/>
	<path class="st6" d="M77.1,30.2c0.1,11-6.4,14.9-14.5,14.9c-8.1,0.1-14.6-3.7-14.7-14.7c-0.1-11,14.4-25.1,14.4-25.1
		S77,19.3,77.1,30.2z"/>
	<polygon class="st7" points="62.1,43.5 62.2,34.3 68.3,22.9 62.2,32.9 62.3,28.7 66.5,20.5 62.3,27.6 62.3,27.6 62.3,20.2 
		66.9,13.6 62.3,19 62.3,5.4 62,23.5 62,22.7 57.3,15.6 61.9,24.1 61.6,32.4 61.6,32.2 56.1,24.8 61.6,33 61.5,34 61.5,34.1 
		61.5,34.1 60.6,55.2 62.1,55.2 62.1,44.3 67.4,36 	"/>
	<path class="st6" d="M103.9,179.7c0.1,11-6.4,14.9-14.5,14.9c-8.1,0.1-14.6-3.7-14.7-14.7c-0.1-11,14.4-25.1,14.4-25.1
		S103.8,168.7,103.9,179.7z"/>
	<polygon class="st7" points="88.9,193 88.9,183.8 95.1,172.4 89,182.3 89,178.2 93.2,170 89,177.1 89,177.1 89.1,169.7 93.6,163.1 
		89.1,168.5 89,154.9 88.7,172.9 88.7,172.2 84,165.1 88.7,173.6 88.3,181.9 88.3,181.7 82.9,174.2 88.3,182.5 88.2,183.5 
		88.2,183.5 88.2,183.6 87.3,204.7 88.8,204.7 88.9,193.8 94.1,185.5 	"/>
	<path class="st6" d="M153.2,70c0.1,11-6.4,14.9-14.5,14.9s-14.6-3.7-14.7-14.7s14.4-25.1,14.4-25.1S153.1,59,153.2,70z"/>
	<polygon class="st7" points="138.2,83.3 138.3,74.1 144.4,62.6 138.3,72.6 138.3,68.5 142.5,60.2 138.3,67.4 138.3,67.4 138.4,60 
		142.9,53.4 138.4,58.8 138.3,45.2 138,63.2 138.1,62.5 133.3,55.4 138,63.9 137.6,72.2 137.6,72 132.2,64.5 137.6,72.8 137.6,73.8 
		137.6,73.8 137.6,73.9 136.6,95 138.1,94.9 138.2,84.1 143.5,75.8 	"/>
	<path class="st6" d="M187.2,277.5c0.1,11-6.4,14.9-14.5,14.9s-14.6-3.7-14.7-14.7s14.4-25.1,14.4-25.1S187.1,266.5,187.2,277.5z"/>
	<polygon class="st7" points="172.2,290.7 172.2,281.5 178.3,270.1 172.2,280.1 172.3,276 176.5,267.7 172.3,274.9 172.3,274.9 
		172.3,267.4 176.9,260.9 172.3,266.3 172.3,252.7 172,270.7 172,270 167.3,262.9 172,271.4 171.6,279.7 171.6,279.5 166.1,272 
		171.6,280.2 171.5,281.3 171.5,281.3 171.5,281.4 170.6,302.4 172.1,302.4 172.2,291.6 177.4,283.2 	"/>
	<path class="st6" d="M147.4,179.7c0.1,11-6.4,14.9-14.5,14.9c-8.1,0.1-14.6-3.7-14.7-14.7s14.4-25.1,14.4-25.1
		S147.3,168.7,147.4,179.7z"/>
	<polygon class="st7" points="132.4,193 132.5,183.8 138.6,172.4 132.5,182.3 132.5,178.2 136.8,170 132.6,177.1 132.6,177.1 
		132.6,169.7 137.1,163.1 132.6,168.5 132.6,154.9 132.3,172.9 132.3,172.2 127.6,165.1 132.2,173.6 131.9,181.9 131.8,181.7 
		126.4,174.2 131.8,182.5 131.8,183.5 131.8,183.5 131.8,183.6 130.9,204.7 132.3,204.7 132.4,193.8 137.7,185.5 	"/>
	<path class="st6" d="M18.4,54.6c-0.9,1.5-2.1,1.4-3.2,0.8c-1.1-0.7-1.6-1.7-0.7-3.2s4-2.1,4-2.1S19.3,53.2,18.4,54.6z"/>
	<path class="st6" d="M77,54c-0.9,1.5-2.1,1.4-3.2,0.8c-1.1-0.7-1.6-1.7-0.7-3.2s4-2.1,4-2.1S78,52.5,77,54z"/>
	<path class="st6" d="M132.1,97.1c-0.9,1.5-2.1,1.4-3.2,0.8c-1.1-0.7-1.6-1.7-0.7-3.2c0.9-1.5,4-2.1,4-2.1S133,95.6,132.1,97.1z"/>
	<path class="st6" d="M100.4,203.5c-0.9,1.5-2.1,1.4-3.2,0.8c-1.1-0.7-1.6-1.7-0.7-3.2c0.9-1.5,4-2.1,4-2.1S101.4,202,100.4,203.5z"
		/>
	<path class="st6" d="M80.7,203.5c-0.9,1.5-2.1,1.4-3.2,0.8s-1.6-1.7-0.7-3.2c0.9-1.5,4-2.1,4-2.1S81.6,202,80.7,203.5z"/>
	<path class="st6" d="M194.2,292.1c-0.9,1.5-2.1,1.4-3.2,0.8c-1.1-0.7-1.6-1.7-0.7-3.2c0.9-1.5,4-2.1,4-2.1S195.1,290.7,194.2,292.1
		z"/>
	<path class="st6" d="M164,165.5c-0.9,1.5-2.1,1.4-3.2,0.8s-1.6-1.7-0.7-3.2c0.9-1.5,4-2.1,4-2.1S164.9,164.1,164,165.5z"/>
	<path class="st6" d="M200.7,112c-0.9,1.5-2.1,1.4-3.2,0.8s-1.6-1.7-0.7-3.2c0.9-1.5,4-2.1,4-2.1S201.7,110.5,200.7,112z"/>
	<path class="st6" d="M193,306.4c0,3.9-3.5,4.7-7.8,4.7c-4.3,0-7.8-0.8-7.8-4.7s3.5-7,7.8-7C189.5,299.4,193,302.5,193,306.4z"/>
	<path class="st6" d="M43.3,51.6c0,2.8-2.6,3.5-5.8,3.5c-3.2,0-5.8-0.6-5.8-3.5s2.6-5.2,5.8-5.2C40.7,46.5,43.3,48.8,43.3,51.6z"/>
</g>
</svg>
