<?xml version="1.0" encoding="utf-8"?>
<!-- Generator: Adobe Illustrator 22.0.1, SVG Export Plug-In . SVG Version: 6.00 Build 0)  -->
<svg version="1.1" xmlns="http://www.w3.org/2000/svg" xmlns:xlink="http://www.w3.org/1999/xlink" x="0px" y="0px"
	 viewBox="0 0 665.8 587.5" style="enable-background:new 0 0 665.8 587.5;" xml:space="preserve">
<style type="text/css">
	.st0{fill:#94572E;}
	.st1{fill:#CEDC38;}
	.st2{fill:#0D9A48;}
	.st3{fill:#227239;}
	.st4{fill:#38A4DD;}
	.st5{fill:none;stroke:#000000;stroke-width:18;stroke-linecap:round;stroke-linejoin:round;stroke-miterlimit:10;}
	.st6{fill:#FFFFFF;}
	.st7{fill:#C4571B;}
	.st8{fill:#E36026;}
</style>
<g id="Vrstva_3">
	<path class="st0" d="M609.18,296.82c-0.36-33.57-9.52-60.98-10.78-94.48c0.12-3.13,0.31-6.31,0.6-9.57
		c0.16-1.78,0.24-3.51,0.25-5.2c0-0.05,0-0.1,0-0.15c0-0.05,0-0.1,0-0.15c0-0.05,0-0.1,0-0.15c0-0.05,0-0.1,0-0.15
		c0-0.05,0-0.1,0-0.15c0-0.05,0-0.1,0-0.15c0-0.05,0-0.1,0-0.15c0-0.05,0-0.1,0-0.15c0-0.05,0-0.1,0-0.15c0-0.05,0-0.1,0-0.15
		c0-0.05,0-0.1,0-0.15c0-0.05,0-0.1,0-0.15c0-0.05,0-0.1,0-0.15c0-0.05,0-0.1,0-0.15c0-0.05,0-0.1,0-0.15c0-0.05,0-0.1,0-0.15
		c0-0.05,0-0.1,0-0.15c0-0.05,0-0.1,0-0.15c0-0.05,0-0.1,0-0.15c0-0.05,0-0.1,0-0.15c0-0.05,0-0.1,0-0.15c0-0.05,0-0.1,0-0.15
		c0-0.05,0-0.1,0-0.15c0-0.05,0-0.1,0-0.15c0-0.05,0-0.1,0-0.15c0-0.05,0-0.1,0-0.15c0-0.05,0-0.1,0-0.15c0-0.05,0-0.1,0-0.15
		c0-0.05,0-0.1,0-0.15c0-0.05,0-0.1,0-0.15c0-0.05,0-0.1,0-0.15c0-0.05,0-0.1,0-0.15c0-0.05,0-0.1,0-0.15c0-0.05,0-0.1,0-0.15
		c0-0.05,0-0.1,0-0.15c0-0.05,0-0.1,0-0.15c0-0.05,0-0.1,0-0.15c0-0.05,0-0.1,0-0.15c0-0.05,0-0.1,0-0.15c0-0.05,0-0.1,0-0.15
		c0-0.05,0-0.1,0-0.15c0-0.05,0-0.1,0-0.15c0-0.05,0-0.1,0-0.15c0-0.05,0-0.1,0-0.15c0-0.05,0-0.1,0-0.15c0-0.05,0-0.1,0-0.15
		c0-0.05,0-0.1,0-0.15c0-0.05,0-0.1,0-0.15c0-0.05,0-0.1,0-0.15c0-0.05,0-0.1,0-0.15c0-0.05,0-0.1,0-0.15c0-0.05,0-0.1,0-0.15
		c0-0.05,0-0.1,0-0.15c0-0.05,0-0.1,0-0.15c0-0.05,0-0.1,0-0.15c0-0.05,0-0.1,0-0.15c0-0.05,0-0.1,0-0.15c0-0.05,0-0.1,0-0.15
		c0-0.05,0-0.1,0-0.15c0-0.05,0-0.1,0-0.15c0-0.05,0-0.1,0-0.15c0-0.05,0-0.1,0-0.15c0-0.05,0-0.1,0-0.15c0-0.05,0-0.1,0-0.15
		c0-0.05,0-0.1,0-0.15c0-0.05,0-0.1,0-0.15c0-0.05,0-0.1,0-0.15c0-0.05,0-0.1,0-0.15c0-0.05,0-0.1,0-0.15c0-0.05,0-0.1,0-0.15
		c0-0.05,0-0.1,0-0.15c0-0.05,0-0.1,0-0.15c0-0.05,0-0.1,0-0.15c0-0.05,0-0.1,0-0.15c0-0.05,0-0.1,0-0.15c0-0.05,0-0.1,0-0.15
		c0-0.05,0-0.1,0-0.15c0-0.05,0-0.1,0-0.15c0-0.05,0-0.1,0-0.15c0-0.05,0-0.1,0-0.15c0-0.05,0-0.1,0-0.15c0-0.05,0-0.1,0-0.15
		c0-0.05,0-0.1,0-0.15c0-0.05,0-0.1,0-0.15c0-0.05,0-0.1,0-0.15c0-0.05,0-0.1,0-0.15c0-0.05,0-0.1,0-0.15c0-0.05,0-0.1,0-0.15
		c0-0.05,0-0.1,0-0.15c0-0.05,0-0.1,0-0.15c0-0.05,0-0.1,0-0.15c0-0.05,0-0.1,0-0.15c0-0.05,0-0.1,0-0.15c0-0.05,0-0.1,0-0.15
		c0-0.05,0-0.1,0-0.15c0-0.05,0-0.1,0-0.15c0-0.05,0-0.1,0-0.15c0-0.05,0-0.1,0-0.15c0-0.05,0-0.1,0-0.15c0-0.05,0-0.1,0-0.15
		c0.35-51.35-67.96-58.09-90.25-93.95c-23-37-100.14-36-133.57-21s-99.43,6-125.43-4s-31-16-51-7c-28.4,12.78-56,12-61,20
		c-3.92,6.27-12.14,13.77-12.14,21.54c0,0.05,0,0.1,0,0.15c0,0.05,0,0.1,0,0.15c0,0.05,0,0.1,0,0.15c0,0.05,0,0.1,0,0.15
		c0,0.05,0,0.1,0,0.15c0,0.05,0,0.1,0,0.15c0,0.05,0,0.1,0,0.15c0,0.05,0,0.1,0,0.15c0,0.05,0,0.1,0,0.15c0,0.05,0,0.1,0,0.15
		c0,0.05,0,0.1,0,0.15c0,0.05,0,0.1,0,0.15c0,0.05,0,0.1,0,0.15c0,0.05,0,0.1,0,0.15c0,0.05,0,0.1,0,0.15c0,0.05,0,0.1,0,0.15
		c0,0.05,0,0.1,0,0.15c0,0.05,0,0.1,0,0.15c0,0.05,0,0.1,0,0.15c0,0.05,0,0.1,0,0.15c0,0.05,0,0.1,0,0.15c0,0.05,0,0.1,0,0.15
		c0,0.05,0,0.1,0,0.15c0,0.05,0,0.1,0,0.15c0,0.05,0,0.1,0,0.15c0,0.05,0,0.1,0,0.15c0,0.05,0,0.1,0,0.15c0,0.05,0,0.1,0,0.15
		c0,0.05,0,0.1,0,0.15c0,0.05,0,0.1,0,0.15c0,0.05,0,0.1,0,0.15c0,0.05,0,0.1,0,0.15c0,0.05,0,0.1,0,0.15c0,0.05,0,0.1,0,0.15
		c0,0.05,0,0.1,0,0.15c0,0.05,0,0.1,0,0.15c0,0.05,0,0.1,0,0.15c0,0.05,0,0.1,0,0.15c0,0.05,0,0.1,0,0.15c0,0.05,0,0.1,0,0.15
		c0,0.05,0,0.1,0,0.15c0,0.05,0,0.1,0,0.15c0,0.05,0,0.1,0,0.15c0,0.05,0,0.1,0,0.15c0,0.05,0,0.1,0,0.15c0,0.05,0,0.1,0,0.15
		c0,0.05,0,0.1,0,0.15c0,0.05,0,0.1,0,0.15c0,0.05,0,0.1,0,0.15c0,0.05,0,0.1,0,0.15c0,0.05,0,0.1,0,0.15c0,0.05,0,0.1,0,0.15
		c0,0.05,0,0.1,0,0.15c0,0.05,0,0.1,0,0.15c0,0.05,0,0.1,0,0.15c0,0.05,0,0.1,0,0.15c0,0.05,0,0.1,0,0.15c0,0.05,0,0.1,0,0.15
		c0,0.05,0,0.1,0,0.15c0,0.05,0,0.1,0,0.15c0,0.05,0,0.1,0,0.15c0,0.05,0,0.1,0,0.15c0,0.05,0,0.1,0,0.15c0,0.05,0,0.1,0,0.15
		c0,0.05,0,0.1,0,0.15c0,0.05,0,0.1,0,0.15c0,0.05,0,0.1,0,0.15c0,0.05,0,0.1,0,0.15c0,0.05,0,0.1,0,0.15c0,0.05,0,0.1,0,0.15
		c0,0.05,0,0.1,0,0.15c0,0.05,0,0.1,0,0.15c0,0.05,0,0.1,0,0.15c0,0.05,0,0.1,0,0.15c0,0.05,0,0.1,0,0.15c0,0.05,0,0.1,0,0.15
		c0,0.05,0,0.1,0,0.15c0,0.05,0,0.1,0,0.15c0,0.05,0,0.1,0,0.15c0,0.05,0,0.1,0,0.15c0,0.05,0,0.1,0,0.15c0,0.05,0,0.1,0,0.15
		c0,0.05,0,0.1,0,0.15c0,0.05,0,0.1,0,0.15c0,0.05,0,0.1,0,0.15c0,0.05,0,0.1,0,0.15c0,0.05,0,0.1,0,0.15c0,0.05,0,0.1,0,0.15
		c0,0.05,0,0.1,0,0.15c0,0.05,0,0.1,0,0.15c0,0.05,0,0.1,0,0.15c0,0.05,0,0.1,0,0.15c0,0.05,0,0.1,0,0.15c0,0.05,0,0.1,0,0.15
		c0,0.05,0,0.1,0,0.15c0,0.05,0,0.1,0,0.15c0,0.05,0,0.1,0,0.15c0,0.05,0,0.1,0,0.15c0,0.05,0,0.1,0,0.15c0,0.05,0,0.1,0,0.15
		c-0.03,2.19,0.59,4.4,2.14,6.6c0.74,1.06,1.29,2.32,1.7,3.71c-1.88,10.02-6.63,20.13-10.7,22.46c-6.58,3.76-33.47,2.22-33.36,11.99
		c0,0.05,0,0.1,0,0.15c0,0.05,0,0.1,0,0.15c0,0.05,0,0.1,0,0.15c0,0.05,0,0.1,0,0.15c0,0.05,0,0.1,0,0.15c0,0.05,0,0.1,0,0.15
		c0,0.05,0,0.1,0,0.15c0,0.05,0,0.1,0,0.15c0,0.05,0,0.1,0,0.15c0,0.05,0,0.1,0,0.15c0,0.05,0,0.1,0,0.15c0,0.05,0,0.1,0,0.15
		c0,0.05,0,0.1,0,0.15c0,0.05,0,0.1,0,0.15c0,0.05,0,0.1,0,0.15c0,0.05,0,0.1,0,0.15c0,0.05,0,0.1,0,0.15c0,0.05,0,0.1,0,0.15
		c0,0.05,0,0.1,0,0.15c0,0.05,0,0.1,0,0.15c0,0.05,0,0.1,0,0.15c0,0.05,0,0.1,0,0.15c0,0.05,0,0.1,0,0.15c0,0.05,0,0.1,0,0.15
		c0,0.05,0,0.1,0,0.15c0,0.05,0,0.1,0,0.15c0,0.05,0,0.1,0,0.15c0,0.05,0,0.1,0,0.15c0,0.05,0,0.1,0,0.15c0,0.05,0,0.1,0,0.15
		c0,0.05,0,0.1,0,0.15c0,0.05,0,0.1,0,0.15c0,0.05,0,0.1,0,0.15c0,0.05,0,0.1,0,0.15c0,0.05,0,0.1,0,0.15c0,0.05,0,0.1,0,0.15
		c0,0.05,0,0.1,0,0.15c0,0.05,0,0.1,0,0.15c0,0.05,0,0.1,0,0.15c0,0.05,0,0.1,0,0.15c0,0.05,0,0.1,0,0.15c0,0.05,0,0.1,0,0.15
		c0,0.05,0,0.1,0,0.15c0,0.05,0,0.1,0,0.15c0,0.05,0,0.1,0,0.15c0,0.05,0,0.1,0,0.15c0,0.05,0,0.1,0,0.15c0,0.05,0,0.1,0,0.15
		c0,0.05,0,0.1,0,0.15c0,0.05,0,0.1,0,0.15c0,0.05,0,0.1,0,0.15c0,0.05,0,0.1,0,0.15c0,0.05,0,0.1,0,0.15c0,0.05,0,0.1,0,0.15
		c0,0.05,0,0.1,0,0.15c0,0.05,0,0.1,0,0.15c0,0.05,0,0.1,0,0.15c0,0.05,0,0.1,0,0.15c0,0.05,0,0.1,0,0.15c0,0.05,0,0.1,0,0.15
		c0,0.05,0,0.1,0,0.15c0,0.05,0,0.1,0,0.15c0,0.05,0,0.1,0,0.15c0,0.05,0,0.1,0,0.15c0,0.05,0,0.1,0,0.15c0,0.05,0,0.1,0,0.15
		c0,0.05,0,0.1,0,0.15c0,0.05,0,0.1,0,0.15c0,0.05,0,0.1,0,0.15c0,0.05,0,0.1,0,0.15c0,0.05,0,0.1,0,0.15c0,0.05,0,0.1,0,0.15
		c0,0.05,0,0.1,0,0.15c0,0.05,0,0.1,0,0.15c0,0.05,0,0.1,0,0.15c0,0.05,0,0.1,0,0.15c0,0.05,0,0.1,0,0.15c0,0.05,0,0.1,0,0.15
		c0,0.05,0,0.1,0,0.15c0,0.05,0,0.1,0,0.15c0,0.05,0,0.1,0,0.15c0,0.05,0,0.1,0,0.15c0,0.05,0,0.1,0,0.15c0,0.05,0,0.1,0,0.15
		c0,0.05,0,0.1,0,0.15c0,0.05,0,0.1,0,0.15c0,0.05,0,0.1,0,0.15c0,0.05,0,0.1,0,0.15c0,0.05,0,0.1,0,0.15c0,0.05,0,0.1,0,0.15
		c0,0.05,0,0.1,0,0.15c0,0.05,0,0.1,0,0.15c0,0.05,0,0.1,0,0.15c0,0.05,0,0.1,0,0.15c0,0.05,0,0.1,0,0.15c0,0.05,0,0.1,0,0.15
		c0,0.05,0,0.1,0,0.15c0,0.05,0,0.1,0,0.15c0,0.05,0,0.1,0,0.15c0,0.05,0,0.1,0,0.15c-0.01,0.67,0.1,1.38,0.36,2.16
		c1.28,3.85,2.46,8.83,3.07,14.24c-0.91,7.01-3.3,13.76-8.07,18.93c-9.4,10.18-23.69,20.94-23.7,33.3c0,0.05,0,0.1,0,0.15
		c0,0.05,0,0.1,0,0.15c0,0.05,0,0.1,0,0.15c0,0.05,0,0.1,0,0.15c0,0.05,0,0.1,0,0.15c0,0.05,0,0.1,0,0.15c0,0.05,0,0.1,0,0.15
		c0,0.05,0,0.1,0,0.15c0,0.05,0,0.1,0,0.15c0,0.05,0,0.1,0,0.15c0,0.05,0,0.1,0,0.15c0,0.05,0,0.1,0,0.15c0,0.05,0,0.1,0,0.15
		c0,0.05,0,0.1,0,0.15c0,0.05,0,0.1,0,0.15c0,0.05,0,0.1,0,0.15c0,0.05,0,0.1,0,0.15c0,0.05,0,0.1,0,0.15c0,0.05,0,0.1,0,0.15
		c0,0.05,0,0.1,0,0.15c0,0.05,0,0.1,0,0.15c0,0.05,0,0.1,0,0.15c0,0.05,0,0.1,0,0.15c0,0.05,0,0.1,0,0.15c0,0.05,0,0.1,0,0.15
		c0,0.05,0,0.1,0,0.15c0,0.05,0,0.1,0,0.15c0,0.05,0,0.1,0,0.15c0,0.05,0,0.1,0,0.15c0,0.05,0,0.1,0,0.15c0,0.05,0,0.1,0,0.15
		c0,0.05,0,0.1,0,0.15c0,0.05,0,0.1,0,0.15c0,0.05,0,0.1,0,0.15c0,0.05,0,0.1,0,0.15c0,0.05,0,0.1,0,0.15c0,0.05,0,0.1,0,0.15
		c0,0.05,0,0.1,0,0.15c0,0.05,0,0.1,0,0.15c0,0.05,0,0.1,0,0.15c0,0.05,0,0.1,0,0.15c0,0.05,0,0.1,0,0.15c0,0.05,0,0.1,0,0.15
		c0,0.05,0,0.1,0,0.15c0,0.05,0,0.1,0,0.15c0,0.05,0,0.1,0,0.15c0,0.05,0,0.1,0,0.15c0,0.05,0,0.1,0,0.15c0,0.05,0,0.1,0,0.15
		c0,0.05,0,0.1,0,0.15c0,0.05,0,0.1,0,0.15c0,0.05,0,0.1,0,0.15c0,0.05,0,0.1,0,0.15c0,0.05,0,0.1,0,0.15c0,0.05,0,0.1,0,0.15
		c0,0.05,0,0.1,0,0.15c0,0.05,0,0.1,0,0.15c0,0.05,0,0.1,0,0.15c0,0.05,0,0.1,0,0.15c0,0.05,0,0.1,0,0.15c0,0.05,0,0.1,0,0.15
		c0,0.05,0,0.1,0,0.15c0,0.05,0,0.1,0,0.15c0,0.05,0,0.1,0,0.15c0,0.05,0,0.1,0,0.15c0,0.05,0,0.1,0,0.15c0,0.05,0,0.1,0,0.15
		c0,0.05,0,0.1,0,0.15c0,0.05,0,0.1,0,0.15c0,0.05,0,0.1,0,0.15c0,0.05,0,0.1,0,0.15c0,0.05,0,0.1,0,0.15c0,0.05,0,0.1,0,0.15
		c0,0.05,0,0.1,0,0.15c0,0.05,0,0.1,0,0.15c0,0.05,0,0.1,0,0.15c0,0.05,0,0.1,0,0.15c0,0.05,0,0.1,0,0.15c0,0.05,0,0.1,0,0.15
		c0,0.05,0,0.1,0,0.15c0,0.05,0,0.1,0,0.15c0,0.05,0,0.1,0,0.15c0,0.05,0,0.1,0,0.15c0,0.05,0,0.1,0,0.15c0,0.05,0,0.1,0,0.15
		c0,0.05,0,0.1,0,0.15c0,0.05,0,0.1,0,0.15c0,0.05,0,0.1,0,0.15c0,0.05,0,0.1,0,0.15c0,0.05,0,0.1,0,0.15c0,0.05,0,0.1,0,0.15
		c0,0.05,0,0.1,0,0.15c0,0.05,0,0.1,0,0.15c0,0.05,0,0.1,0,0.15c0,0.05,0,0.1,0,0.15c0,0.05,0,0.1,0,0.15c0,0.05,0,0.1,0,0.15
		c0,0.05,0,0.1,0,0.15c0,0.05,0,0.1,0,0.15c0,0.05,0,0.1,0,0.15c-0.03,3.47,1.05,7.07,3.7,10.82c10.51,14.91,19.49,23.63,22.22,36
		c-1.46,3.96-4.22,5.29-4.22,22.23c0,0.02,0,0.03,0,0.05c0,0.03,0,0.06,0,0.09c0,0.02,0,0.03,0,0.05c0,0.03,0,0.06,0,0.09
		c0,0.02,0,0.03,0,0.05c0,0.03,0,0.06,0,0.09c0,0.02,0,0.03,0,0.05c0,0.03,0,0.06,0,0.09c0,0.02,0,0.03,0,0.05c0,0.03,0,0.06,0,0.09
		c0,0.02,0,0.03,0,0.05c0,0.03,0,0.06,0,0.09c0,0.02,0,0.03,0,0.05c0,0.03,0,0.06,0,0.09c0,0.02,0,0.03,0,0.05c0,0.03,0,0.06,0,0.09
		c0,0.02,0,0.03,0,0.05c0,0.03,0,0.06,0,0.09c0,0.02,0,0.03,0,0.05c0,0.03,0,0.06,0,0.09c0,0.02,0,0.03,0,0.05c0,0.03,0,0.06,0,0.09
		c0,0.02,0,0.03,0,0.05c0,0.03,0,0.06,0,0.09c0,0.02,0,0.03,0,0.05c0,0.03,0,0.06,0,0.09c0,0.02,0,0.03,0,0.05c0,0.03,0,0.06,0,0.09
		c0,0.02,0,0.03,0,0.05c0,0.03,0,0.06,0,0.09c0,0.02,0,0.03,0,0.05c0,0.03,0,0.06,0,0.09c0,0.02,0,0.03,0,0.05c0,0.03,0,0.06,0,0.09
		c0,0.02,0,0.03,0,0.05c0,0.03,0,0.06,0,0.09c0,0.02,0,0.03,0,0.05c0,0.03,0,0.06,0,0.09c0,0.02,0,0.03,0,0.05c0,0.03,0,0.06,0,0.09
		c0,0.02,0,0.03,0,0.05c0,0.03,0,0.06,0,0.09c0,0.02,0,0.03,0,0.05c0,0.03,0,0.06,0,0.09c0,0.02,0,0.03,0,0.05c0,0.03,0,0.06,0,0.09
		c0,0.02,0,0.03,0,0.05c0,0.03,0,0.06,0,0.09c0,0.02,0,0.03,0,0.05c0,0.03,0,0.06,0,0.09c0,0.02,0,0.03,0,0.05c0,0.03,0,0.06,0,0.09
		c0,0.02,0,0.03,0,0.05c0,0.03,0,0.06,0,0.09c0,0.02,0,0.03,0,0.05c0,0.03,0,0.06,0,0.09c0,0.02,0,0.03,0,0.05c0,0.03,0,0.06,0,0.09
		c0,0.02,0,0.03,0,0.05c0,0.03,0,0.06,0,0.09c0,0.02,0,0.03,0,0.05c0,0.03,0,0.06,0,0.09c0,0.02,0,0.03,0,0.05c0,0.03,0,0.06,0,0.09
		c0,0.02,0,0.03,0,0.05c0,0.03,0,0.06,0,0.09c0,0.02,0,0.03,0,0.05c0,0.03,0,0.06,0,0.09c0,0.02,0,0.03,0,0.05c0,0.03,0,0.06,0,0.09
		c0,0.02,0,0.03,0,0.05c0,0.03,0,0.06,0,0.09c0,0.02,0,0.03,0,0.05c0,0.03,0,0.06,0,0.09c0,0.02,0,0.03,0,0.05c0,0.03,0,0.06,0,0.09
		c0,0.02,0,0.03,0,0.05c0,0.03,0,0.06,0,0.09c0,0.02,0,0.03,0,0.05c0,0.03,0,0.06,0,0.09c0,0.02,0,0.03,0,0.05c0,0.03,0,0.06,0,0.09
		c0,0.02,0,0.03,0,0.05c0,0.03,0,0.06,0,0.09c0,0.02,0,0.03,0,0.05c0,0.03,0,0.06,0,0.09c0,0.02,0,0.03,0,0.05c0,0.03,0,0.06,0,0.09
		c0,0.02,0,0.03,0,0.05c0,0.03,0,0.06,0,0.09c0,0.02,0,0.03,0,0.05c0,0.03,0,0.06,0,0.09c0,0.02,0,0.03,0,0.05c0,0.03,0,0.06,0,0.09
		c0,0.02,0,0.03,0,0.05c0,0.03,0,0.06,0,0.09c0,0.02,0,0.03,0,0.05c0,0.03,0,0.06,0,0.09c0,0.02,0,0.03,0,0.05c0,0.03,0,0.06,0,0.09
		c0,0.02,0,0.03,0,0.05c0,0.03,0,0.06,0,0.09c0,0.02,0,0.03,0,0.05c0,0.03,0,0.06,0,0.09c0,0.02,0,0.03,0,0.05c0,0.03,0,0.06,0,0.09
		c0,0.02,0,0.03,0,0.05c0,0.03,0,0.06,0,0.09c0,0.02,0,0.03,0,0.05c0,0.03,0,0.06,0,0.09c0,0.02,0,0.03,0,0.05c0,0.03,0,0.06,0,0.09
		c0,0.02,0,0.03,0,0.05c0,0.03,0,0.06,0,0.09c0,0.02,0,0.03,0,0.05c0,0.03,0,0.06,0,0.09c0,0.02,0,0.03,0,0.05c0,0.03,0,0.06,0,0.09
		c0,0.02,0,0.03,0,0.05c0,0.03,0,0.06,0,0.09c0,0.02,0,0.03,0,0.05c0,0.03,0,0.06,0,0.09c0,0.02,0,0.03,0,0.05c0,0.03,0,0.06,0,0.09
		c0,0.02,0,0.03,0,0.05c0,0.03,0,0.06,0,0.09c0,0.02,0,0.03,0,0.05c0,0.03,0,0.06,0,0.09c0,0.02,0,0.03,0,0.05c0,0.03,0,0.06,0,0.09
		c0,0.02,0,0.03,0,0.05c0,0.03,0,0.06,0,0.09c0,0.02,0,0.03,0,0.05c0,0.03,0,0.06,0,0.09c0,0.02,0,0.03,0,0.05c0,0.03,0,0.06,0,0.09
		c0,0.02,0,0.03,0,0.05c0,0.03,0,0.06,0,0.09c0,0.02,0,0.03,0,0.05c0,0.03,0,0.06,0,0.09c0,0.02,0,0.03,0,0.05c0,0.03,0,0.06,0,0.09
		c0,0.02,0,0.03,0,0.05c0,0.03,0,0.06,0,0.09c0,0.02,0,0.03,0,0.05c0,0.03,0,0.06,0,0.09c0,0.02,0,0.03,0,0.05c0,0.03,0,0.06,0,0.09
		c0,0.02,0,0.03,0,0.05c0,0.03,0,0.06,0,0.09c0,0.02,0,0.03,0,0.05c0,0.03,0,0.06,0,0.09c0,0.02,0,0.03,0,0.05c0,0.03,0,0.06,0,0.09
		c0,0.02,0,0.03,0,0.05c0,0.03,0,0.06,0,0.09c0,0.02,0,0.03,0,0.05c0,0.03,0,0.06,0,0.09c0,0.02,0,0.03,0,0.05c0,0.03,0,0.06,0,0.09
		c0,0.02,0,0.03,0,0.05c0,0.03,0,0.06,0,0.09c0,0.02,0,0.03,0,0.05c0,0.03,0,0.06,0,0.09c0,0.02,0,0.03,0,0.05c0,0.03,0,0.06,0,0.09
		c0,0.02,0,0.03,0,0.05c0,0.03,0,0.06,0,0.09c0,0.02,0,0.03,0,0.05c0,0.03,0,0.06,0,0.09c0,0.02,0,0.03,0,0.05c0,0.03,0,0.06,0,0.09
		c0,0.02,0,0.03,0,0.05c0,0.03,0,0.06,0,0.09c0,0.02,0,0.03,0,0.05c0,0.03,0,0.06,0,0.09c0,0.02,0,0.03,0,0.05c0,0.03,0,0.06,0,0.09
		c0,0.02,0,0.03,0,0.05c0,0.03,0,0.06,0,0.09c0,0.02,0,0.03,0,0.05c0,0.03,0,0.06,0,0.09c0,0.02,0,0.03,0,0.05c0,0.03,0,0.06,0,0.09
		c0,0.02,0,0.03,0,0.05c0,0.03,0,0.06,0,0.09c0,0.02,0,0.03,0,0.05c0,0.03,0,0.06,0,0.09c0,0.02,0,0.03,0,0.05c0,0.03,0,0.06,0,0.09
		c0,0.02,0,0.03,0,0.05c0,0.03,0,0.06,0,0.09c0,0.02,0,0.03,0,0.05c0,0.03,0,0.06,0,0.09c0,0.02,0,0.03,0,0.05c0,0.03,0,0.06,0,0.09
		c0,0.02,0,0.03,0,0.05c0,0.03,0,0.06,0,0.09c0,0.02,0,0.03,0,0.05c0,0.03,0,0.06,0,0.09c0,0.02,0,0.03,0,0.05c0,0.03,0,0.06,0,0.09
		c0,24.97,11,35.41,21,43.19c9.14,7.11,19.94,20.89,20.97,37.42c0,0.02,0,0.04,0,0.06c0,0.05,0,0.1,0,0.15c0,0.05,0,0.1,0,0.15
		c0,0.05,0,0.1,0,0.15c0,0.05,0,0.1,0,0.15c0,0.05,0,0.1,0,0.15c0,0.05,0,0.1,0,0.15c0,0.05,0,0.1,0,0.15c0,0.05,0,0.1,0,0.15
		c0,0.05,0,0.1,0,0.15c0,0.05,0,0.1,0,0.15c0,0.05,0,0.1,0,0.15c0,0.05,0,0.1,0,0.15c0,0.05,0,0.1,0,0.15c0,0.05,0,0.1,0,0.15
		c0,0.05,0,0.1,0,0.15c0,0.05,0,0.1,0,0.15c0,0.05,0,0.1,0,0.15c0,0.05,0,0.1,0,0.15c0,0.05,0,0.1,0,0.15c0,0.05,0,0.1,0,0.15
		c0,0.05,0,0.1,0,0.15c0,0.05,0,0.1,0,0.15c0,0.05,0,0.1,0,0.15c0,0.05,0,0.1,0,0.15c0,0.05,0,0.1,0,0.15c0,0.05,0,0.1,0,0.15
		c0,0.05,0,0.1,0,0.15c0,0.05,0,0.1,0,0.15c0,0.05,0,0.1,0,0.15c0,0.05,0,0.1,0,0.15c0,0.05,0,0.1,0,0.15c0,0.05,0,0.1,0,0.15
		c0,0.05,0,0.1,0,0.15c0,0.05,0,0.1,0,0.15c0,0.05,0,0.1,0,0.15c0,0.05,0,0.1,0,0.15c0,0.05,0,0.1,0,0.15c0,0.05,0,0.1,0,0.15
		c0,0.05,0,0.1,0,0.15c0,0.05,0,0.1,0,0.15c0,0.05,0,0.1,0,0.15c0,0.05,0,0.1,0,0.15c0,0.05,0,0.1,0,0.15
		c0.21,12.8,10.58,25.57,14.54,37.16c-3.36,7.97-8.8,16.25-8.77,23.68c0,0.05,0,0.1,0,0.15c0,0.05,0,0.1,0,0.15c0,0.05,0,0.1,0,0.15
		c0,0.05,0,0.1,0,0.15c0,0.05,0,0.1,0,0.15c0,0.05,0,0.1,0,0.15c0,0.05,0,0.1,0,0.15c0,0.05,0,0.1,0,0.15c0,0.05,0,0.1,0,0.15
		c0,0.05,0,0.1,0,0.15c0,0.05,0,0.1,0,0.15c0,0.05,0,0.1,0,0.15c0,0.05,0,0.1,0,0.15c0,0.05,0,0.1,0,0.15c0,0.05,0,0.1,0,0.15
		c0,0.05,0,0.1,0,0.15c0,0.05,0,0.1,0,0.15c0,0.05,0,0.1,0,0.15c0,0.05,0,0.1,0,0.15c0,0.05,0,0.1,0,0.15c0,0.05,0,0.1,0,0.15
		c0,0.05,0,0.1,0,0.15c0,0.05,0,0.1,0,0.15c0,0.05,0,0.1,0,0.15c0,0.05,0,0.1,0,0.15c0,0.05,0,0.1,0,0.15c0,0.05,0,0.1,0,0.15
		c0,0.05,0,0.1,0,0.15c0,0.05,0,0.1,0,0.15c0,0.05,0,0.1,0,0.15c0,0.05,0,0.1,0,0.15c0,0.05,0,0.1,0,0.15c0,0.05,0,0.1,0,0.15
		c0,0.05,0,0.1,0,0.15c0,0.05,0,0.1,0,0.15c0,0.05,0,0.1,0,0.15c0,0.05,0,0.1,0,0.15c0,0.05,0,0.1,0,0.15c0,0.05,0,0.1,0,0.15
		c0,0.05,0,0.1,0,0.15c0,0.05,0,0.1,0,0.15c0,0.05,0,0.1,0,0.15c0,0.05,0,0.1,0,0.15c0,0.05,0,0.1,0,0.15c0,0.05,0,0.1,0,0.15
		c0,0.05,0,0.1,0,0.15c0,0.05,0,0.1,0,0.15c0,0.05,0,0.1,0,0.15c0,0.05,0,0.1,0,0.15c0,0.05,0,0.1,0,0.15c0,0.05,0,0.1,0,0.15
		c0,0.05,0,0.1,0,0.15c0,0.05,0,0.1,0,0.15c0,0.05,0,0.1,0,0.15c0,0.05,0,0.1,0,0.15c0,0.05,0,0.1,0,0.15c0,0.05,0,0.1,0,0.15
		c0,0.05,0,0.1,0,0.15c0,0.05,0,0.1,0,0.15c0,0.05,0,0.1,0,0.15c0,0.05,0,0.1,0,0.15c0,0.05,0,0.1,0,0.15c0,0.05,0,0.1,0,0.15
		c0,0.05,0,0.1,0,0.15c0,0.05,0,0.1,0,0.15c0,0.05,0,0.1,0,0.15c0,0.05,0,0.1,0,0.15c0,0.05,0,0.1,0,0.15c0,0.05,0,0.1,0,0.15
		c0,0.05,0,0.1,0,0.15c0,0.05,0,0.1,0,0.15c0,0.05,0,0.1,0,0.15c0,0.05,0,0.1,0,0.15c0,0.05,0,0.1,0,0.15c0,0.05,0,0.1,0,0.15
		c0,0.05,0,0.1,0,0.15c0,0.05,0,0.1,0,0.15c0,0.05,0,0.1,0,0.15c0,0.05,0,0.1,0,0.15c0,0.05,0,0.1,0,0.15c0,0.05,0,0.1,0,0.15
		c0,0.05,0,0.1,0,0.15c0,0.05,0,0.1,0,0.15c0,0.05,0,0.1,0,0.15c0,0.05,0,0.1,0,0.15c0,0.05,0,0.1,0,0.15c0,0.05,0,0.1,0,0.15
		c0,0.05,0,0.1,0,0.15c0,0.05,0,0.1,0,0.15c0,0.05,0,0.1,0,0.15c0,0.05,0,0.1,0,0.15c0,0.05,0,0.1,0,0.15c0,0.05,0,0.1,0,0.15
		c0,0.05,0,0.1,0,0.15c0,0.05,0,0.1,0,0.15c0,0.05,0,0.1,0,0.15c0,0.05,0,0.1,0,0.15c0,0.05,0,0.1,0,0.15c0,0.05,0,0.1,0,0.15
		c0,0.05,0,0.1,0,0.15c-0.03,6.48,4.06,12.31,17.25,16.74c29,9.73,58,45.37,98,33.55c40-11.82,94.8-49.28,116.9-33.55
		c22.1,15.73,26.37,27.17,72.74-5.05c46.36-32.22,46.46-76.78,85.36-73.5s55.01,9.04,69.01-15.34s11.98-15.71,20.99-73.3
		c1.69-10.8,2.29-20.82,2.18-30.35c0-0.05,0-0.1,0-0.15c0-0.05,0-0.1,0-0.15s0-0.1,0-0.15c0-0.05,0-0.1,0-0.15s0-0.1,0-0.15
		c0-0.05,0-0.1,0-0.15c0-0.05,0-0.1,0-0.15s0-0.1,0-0.15c0-0.05,0-0.1,0-0.15s0-0.1,0-0.15c0-0.05,0-0.1,0-0.15c0-0.05,0-0.1,0-0.15
		s0-0.1,0-0.15c0-0.05,0-0.1,0-0.15s0-0.1,0-0.15c0-0.05,0-0.1,0-0.15c0-0.05,0-0.1,0-0.15s0-0.1,0-0.15c0-0.05,0-0.1,0-0.15
		s0-0.1,0-0.15c0-0.05,0-0.1,0-0.15c0-0.05,0-0.1,0-0.15s0-0.1,0-0.15c0-0.05,0-0.1,0-0.15s0-0.1,0-0.15c0-0.05,0-0.1,0-0.15
		c0-0.05,0-0.1,0-0.15s0-0.1,0-0.15c0-0.05,0-0.1,0-0.15s0-0.1,0-0.15c0-0.05,0-0.1,0-0.15c0-0.05,0-0.1,0-0.15c0-0.05,0-0.1,0-0.15
		c0-0.05,0-0.1,0-0.15s0-0.1,0-0.15c0-0.05,0-0.1,0-0.15c0-0.05,0-0.1,0-0.15c0-0.05,0-0.1,0-0.15c0-0.05,0-0.1,0-0.15s0-0.1,0-0.15
		c0-0.05,0-0.1,0-0.15c0-0.05,0-0.1,0-0.15c0-0.05,0-0.1,0-0.15c0-0.05,0-0.1,0-0.15s0-0.1,0-0.15c0-0.05,0-0.1,0-0.15
		c0-0.05,0-0.1,0-0.15c0-0.05,0-0.1,0-0.15c0-0.05,0-0.1,0-0.15s0-0.1,0-0.15c0-0.05,0-0.1,0-0.15c0-0.05,0-0.1,0-0.15
		c0-0.05,0-0.1,0-0.15c0-0.05,0-0.1,0-0.15s0-0.1,0-0.15c0-0.05,0-0.1,0-0.15c0-0.05,0-0.1,0-0.15c0-0.05,0-0.1,0-0.15
		c0-0.05,0-0.1,0-0.15s0-0.1,0-0.15c0-0.05,0-0.1,0-0.15c0-0.05,0-0.1,0-0.15c0-0.05,0-0.1,0-0.15c0-0.05,0-0.1,0-0.15s0-0.1,0-0.15
		c0-0.05,0-0.1,0-0.15c0-0.05,0-0.1,0-0.15c0-0.05,0-0.1,0-0.15c0-0.05,0-0.1,0-0.15s0-0.1,0-0.15c0-0.05,0-0.1,0-0.15
		c0-0.05,0-0.1,0-0.15c0-0.05,0-0.1,0-0.15c0-0.05,0-0.1,0-0.15s0-0.1,0-0.15c0-0.05,0-0.1,0-0.15c0-0.05,0-0.1,0-0.15
		c0-0.05,0-0.1,0-0.15c0-0.05,0-0.1,0-0.15s0-0.1,0-0.15c0-0.05,0-0.1,0-0.15c0-0.05,0-0.1,0-0.15c0-0.05,0-0.1,0-0.15
		c0-0.05,0-0.1,0-0.15s0-0.1,0-0.15c0-0.05,0-0.1,0-0.15s0-0.1,0-0.15c0-0.05,0-0.1,0-0.15c0-0.05,0-0.1,0-0.15s0-0.1,0-0.15
		c0-0.05,0-0.1,0-0.15s0-0.1,0-0.15c0-0.05,0-0.1,0-0.15c0-0.05,0-0.1,0-0.15s0-0.1,0-0.15c0-0.05,0-0.1,0-0.15s0-0.1,0-0.15
		c0-0.05,0-0.1,0-0.15c0-0.05,0-0.1,0-0.15S609.18,296.86,609.18,296.82z"/>
</g>
<g id="Vrstva_2">
	<path class="st1" d="M199,46.94c-28.4,12.78-56,12-61,20s-17,18-10,28s-2,37-9,41s-37,2-33,14s7,35-5,48s-32,26.95-20,43.98
		s22,25.97,23,41.5s-5,6.59-5,31.56c0,24.97,11,35.41,21,43.19s22,23.54,21,42.16s21,37.27,15,52.44c-6,15.18-21,31.72,8,41.45
		s58,45.37,98,33.55c40-11.82,94.8-49.28,116.9-33.55c22.1,15.73,26.37,27.17,72.74-5.05s46.46-76.78,85.36-73.5
		s55.01,9.04,69.01-15.34s11.98-15.71,20.99-73.3s-13-93.08-8-149.08s-67-62-90-99s-100.14-36-133.57-21s-99.43,6-125.43-4
		S219,37.94,199,46.94z"/>
</g>
<g id="Vrstva_1">
	<g id="Vrstva_2_1_">
	</g>
	<g id="Vrstva_1_1_">
		<g id="Vrstva_5">
		</g>
	</g>
	<path class="st2" d="M332.7,85.95c0.17,18.53-10.78,25.09-24.42,25.09c-13.64,0.17-24.59-6.23-24.76-24.76
		c-0.17-18.36,24.25-42.1,24.25-42.1S332.53,67.59,332.7,85.95z"/>
	<polygon class="st3" points="307.44,108.35 307.6,92.86 317.88,73.66 307.6,90.5 307.6,83.43 314.68,69.62 307.6,81.57 
		307.6,81.57 307.77,69.11 315.35,58 307.77,67.09 307.6,44.19 307.1,74.67 307.27,73.32 299.18,61.36 307.1,75.68 306.43,89.66 
		306.43,89.32 297.33,76.86 306.43,90.67 306.43,92.35 306.43,92.52 306.43,92.52 304.74,128.05 307.27,128.05 307.44,109.7 
		316.36,95.72 	"/>
	<path class="st2" d="M499.37,97.45c0.17,18.53-10.78,25.09-24.42,25.09c-13.64,0.17-24.59-6.23-24.76-24.76
		c-0.17-18.53,24.25-42.27,24.25-42.27S499.21,79.09,499.37,97.45z"/>
	<polygon class="st3" points="474.11,119.85 474.28,104.36 484.55,85.16 474.28,102 474.45,94.93 481.52,81.12 474.45,93.07 
		474.45,93.07 474.45,80.61 482.2,69.5 474.45,78.59 474.45,55.69 473.94,86.17 473.94,84.82 466.03,72.86 473.78,87.18 
		473.27,101.16 473.27,100.82 464.01,88.36 473.27,102.17 473.1,103.85 473.1,104.02 473.1,104.02 471.59,139.55 474.11,139.55 
		474.11,121.2 483.04,107.22 	"/>
	<path class="st2" d="M291.61,127.04c-1.52,2.53-3.54,2.36-5.39,1.35c-1.85-1.18-2.69-2.86-1.18-5.39c1.52-2.53,6.74-3.54,6.74-3.54
		S293.12,124.69,291.61,127.04z"/>
	<path class="st2" d="M499.21,137.53c-1.52,2.53-3.54,2.36-5.39,1.35c-1.85-1.18-2.69-2.86-1.18-5.39s6.74-3.54,6.74-3.54
		S500.89,135.01,499.21,137.53z"/>
	<path class="st2" d="M333.54,121.99c0,4.72-4.38,5.89-9.77,5.89s-9.77-1.01-9.77-5.89s4.38-8.76,9.77-8.76
		C329.16,113.4,333.54,117.28,333.54,121.99z"/>
	<path class="st4" d="M137.04,447.11c-0.7-7.5-4.3-14.59-4.3-14.59c28.61-15.63,49.55-35.22,63.1-58.66
		c9.96-17.24,13.04-31.32,16.3-46.22c3.88-17.73,7.89-36.07,24.19-57.85c9.03-12.06,28.77-34.39,59.58-48.34
		c20.69-9.37,36.58-10.64,50.61-11.77c14.53-1.16,26.01-2.08,39.32-12.07c20.69-15.51,27.4-38.85,30.63-50.07
		c12.45-43.28-6.76-82.73-15.02-96.98c6.02-1.21,11.27-1.57,16.52-1.94c10.04,16.99,26.96,54.25,12.92,103.07
		c-3.39,11.79-11.33,39.4-36.04,57.93c-16.79,12.59-31.52,13.77-47.12,15.02c-13.42,1.08-27.3,2.19-45.62,10.48
		c-27.75,12.57-45.59,32.75-53.75,43.66c-14.35,19.18-17.84,35.16-21.55,52.07c-3.36,15.37-6.84,31.26-17.97,50.52
		C193.89,407.22,157.24,437.27,137.04,447.11z"/>
	<path class="st5" d="M250,52.94v79c0,15.53,12.59,28.11,28.11,28.11h193.78c15.53,0,28.11,12.59,28.11,28.11v69.06
		c0,15.53-12.59,28.11-28.11,28.11H319.11c-15.53,0-28.11,12.59-28.11,28.11v74.38c0,15.53,12.59,28.11,28.11,28.11h81
		c15.53,0,28.11,12.59,28.11,28.11v46.46"/>
	<g>
		<circle class="st6" cx="345.5" cy="160.05" r="20"/>
		<path d="M345.5,143.05c9.39,0,17,7.61,17,17s-7.61,17-17,17s-17-7.61-17-17S336.11,143.05,345.5,143.05 M345.5,137.05
			c-12.68,0-23,10.32-23,23s10.32,23,23,23s23-10.32,23-23S358.18,137.05,345.5,137.05L345.5,137.05z"/>
	</g>
	<g>
		<path class="st6" d="M442.33,305.33c-11.03,0-20-8.97-20-20s8.97-20,20-20c11.03,0,20,8.97,20,20S453.36,305.33,442.33,305.33z"/>
		<g>
			<path d="M442.33,268.34c9.39,0,17,7.61,17,17s-7.61,17-17,17c-9.39,0-17-7.61-17-17S432.94,268.34,442.33,268.34 M442.33,262.34
				c-12.68,0-23,10.32-23,23s10.32,23,23,23c12.68,0,23-10.32,23-23S455.02,262.34,442.33,262.34L442.33,262.34z"/>
		</g>
	</g>
	<g>
		<path class="st6" d="M291,376.45c-11.03,0-20-8.97-20-20c0-11.03,8.97-20,20-20s20,8.97,20,20
			C311,367.48,302.03,376.45,291,376.45z"/>
		<path d="M291,339.45c9.39,0,17,7.61,17,17c0,9.39-7.61,17-17,17s-17-7.61-17-17C274,347.06,281.61,339.45,291,339.45 M291,333.45
			c-12.68,0-23,10.32-23,23c0,12.68,10.32,23,23,23s23-10.32,23-23C314,343.77,303.68,333.45,291,333.45L291,333.45z"/>
	</g>
	<path class="st2" d="M213.9,205.48c0.18,19.89-11.57,26.94-26.22,26.94c-14.65,0.18-26.4-6.69-26.58-26.58
		c-0.18-19.89,26.04-45.39,26.04-45.39S213.72,185.59,213.9,205.48z"/>
	<polygon class="st3" points="186.78,229.53 186.96,212.89 197.99,192.28 186.96,210.18 186.96,202.77 194.74,187.94 187.14,200.78 
		187.14,200.78 187.14,187.4 195.28,175.46 187.14,185.23 187.14,160.63 186.6,193.18 186.6,191.92 178.1,179.08 186.42,194.45 
		185.88,209.46 185.69,209.1 175.93,195.53 185.69,210.54 185.69,212.35 185.69,212.35 185.69,212.53 184.07,250.69 186.6,250.69 
		186.78,230.98 196.36,215.97 	"/>
	<path class="st2" d="M253.82,432.8c0.18,19.89-11.57,26.94-26.22,26.94c-14.65,0.18-26.4-6.69-26.58-26.58
		c-0.18-19.89,26.04-45.39,26.04-45.39S253.64,412.91,253.82,432.8z"/>
	<polygon class="st3" points="226.69,456.85 226.87,440.22 237.9,419.6 226.87,437.51 226.87,430.09 234.65,415.26 227.05,428.1 
		227.05,428.1 227.05,414.72 235.19,402.79 227.05,412.55 227.05,387.96 226.51,420.51 226.51,419.24 218.01,406.4 226.33,421.77 
		225.79,436.78 225.61,436.42 215.84,422.86 225.61,437.87 225.61,439.68 225.61,439.68 225.61,439.86 223.98,478.01 226.51,478.01 
		226.69,458.3 236.28,443.29 	"/>
	<path class="st2" d="M210.78,255.66c0,4.72-4.38,5.89-9.77,5.89c-5.39,0-9.77-1.01-9.77-5.89c0-4.88,4.38-8.76,9.77-8.76
		C206.4,247.07,210.78,250.94,210.78,255.66z"/>
	<path class="st2" d="M214.75,474.49c0,4.72-4.38,5.89-9.77,5.89c-5.39,0-9.77-1.01-9.77-5.89c0-4.88,4.38-8.76,9.77-8.76
		C210.37,465.9,214.75,469.78,214.75,474.49z"/>
	<path class="st2" d="M238.36,478.35c-1.52,2.53-3.54,2.36-5.39,1.35c-1.85-1.18-2.69-2.86-1.18-5.39c1.52-2.53,6.74-3.54,6.74-3.54
		S239.87,475.99,238.36,478.35z"/>
	<path class="st7" d="M423.38,330.11L399.49,354c-0.94,0.94-0.27,2.54,1.05,2.54h47.58c1.32,0,1.99-1.6,1.06-2.54l-23.7-23.89
		C424.91,329.53,423.96,329.53,423.38,330.11z"/>
	<rect x="406.39" y="356.54" class="st8" width="35.89" height="26.69"/>
	<path class="st7" d="M535.13,310.61l-23.89,23.89c-0.94,0.94-0.27,2.54,1.05,2.54h47.58c1.32,0,1.99-1.6,1.06-2.54l-23.7-23.89
		C536.66,310.03,535.71,310.03,535.13,310.61z"/>
	<rect x="518.14" y="337.04" class="st8" width="35.89" height="26.69"/>
	<path class="st7" d="M147.89,266.41L124,290.3c-0.94,0.94-0.27,2.54,1.05,2.54h47.58c1.32,0,1.99-1.6,1.06-2.54L150,266.41
		C149.42,265.83,148.47,265.83,147.89,266.41z"/>
	<rect x="130.9" y="292.84" class="st8" width="35.89" height="26.69"/>
	<path class="st2" d="M455.28,384.66c0,4.72-4.38,5.89-9.77,5.89s-9.77-1.01-9.77-5.89s4.38-8.76,9.77-8.76
		C450.9,376.07,455.28,379.95,455.28,384.66z"/>
	<path class="st2" d="M501.62,357.88c0,4.72-4.38,5.89-9.77,5.89s-9.77-1.01-9.77-5.89c0-4.88,4.38-8.76,9.77-8.76
		C497.24,349.3,501.62,353.17,501.62,357.88z"/>
	<path class="st2" d="M382.72,327.27c0.17,18.53-10.78,25.09-24.42,25.09c-13.64,0.17-24.59-6.23-24.76-24.76
		c-0.17-18.53,24.25-42.27,24.25-42.27S382.55,308.91,382.72,327.27z"/>
	<polygon class="st3" points="357.45,349.67 357.62,334.17 367.9,314.98 357.62,331.82 357.79,324.74 364.86,310.93 357.79,322.89 
		357.79,322.89 357.79,310.43 365.54,299.31 357.79,308.41 357.79,285.5 357.29,315.99 357.29,314.64 349.37,302.68 357.12,317 
		356.61,330.97 356.61,330.64 347.35,318.18 356.61,331.98 356.44,333.67 356.44,333.84 356.44,333.84 354.93,369.37 357.45,369.37 
		357.45,351.02 366.38,337.04 	"/>
	<path class="st7" d="M230.05,129.52l-23.89,23.89c-0.94,0.94-0.27,2.54,1.05,2.54h47.58c1.32,0,1.99-1.6,1.06-2.54l-23.7-23.89
		C231.58,128.94,230.63,128.93,230.05,129.52z"/>
	<rect x="213.06" y="155.95" class="st8" width="35.89" height="26.69"/>
</g>
</svg>
